<svg width="219" height="32" viewBox="0 0 219 32" fill="none" xmlns="http://www.w3.org/2000/svg">
<g clip-path="url(#clip0_1058_112)">
<path d="M13.0518 9.01542L11.0316 8.47411L9.32916 14.8277L7.79218 9.09163L5.77195 9.63294L7.43257 15.8303L3.29637 11.6941L1.81748 13.173L6.35438 17.71L0.704395 16.196L0.163086 18.2162L6.3364 19.8704C6.26572 19.5655 6.22833 19.2479 6.22833 18.9215C6.22833 16.6113 8.10108 14.7386 10.4113 14.7386C12.7214 14.7386 14.5942 16.6113 14.5942 18.9215C14.5942 19.2458 14.5573 19.5614 14.4874 19.8645L20.0979 21.3678L20.6391 19.3476L14.4413 17.6869L20.0916 16.1729L19.5503 14.1527L13.3527 15.8133L17.4889 11.6772L16.01 10.1983L11.536 14.6723L13.0518 9.01542Z" fill="white"/>
<path d="M14.482 19.888C14.3088 20.6203 13.9431 21.2781 13.4414 21.8052L17.5059 25.8697L18.9848 24.3908L14.482 19.888Z" fill="white"/>
<path d="M13.4004 21.8477C12.8926 22.3663 12.2509 22.7533 11.5312 22.9528L13.0102 28.4724L15.0304 27.9311L13.4004 21.8477Z" fill="white"/>
<path d="M11.4554 22.973C11.1215 23.0588 10.7716 23.1044 10.411 23.1044C10.0246 23.1044 9.65045 23.052 9.29527 22.954L7.81494 28.4787L9.83511 29.0199L11.4554 22.973Z" fill="white"/>
<path d="M9.2243 22.9336C8.51567 22.7242 7.88538 22.3323 7.38796 21.8121L3.31348 25.8866L4.79236 27.3655L9.2243 22.9336Z" fill="white"/>
<path d="M7.35367 21.7761C6.86478 21.2527 6.50867 20.6037 6.33917 19.8827L0.710449 21.391L1.25176 23.4111L7.35367 21.7761Z" fill="white"/>
</g>
<path d="M42.2178 12.128C42.3138 11.792 42.4578 11.52 42.6498 11.312C42.8418 11.088 43.0498 10.976 43.2738 10.976C43.8178 10.976 44.2098 11.08 44.4498 11.288C44.6898 11.496 44.8098 11.856 44.8098 12.368C44.8098 12.512 44.6978 12.92 44.4738 13.592C43.9778 15.112 43.4338 16.992 42.8418 19.232C42.6978 19.744 42.5778 20.192 42.4818 20.576C42.4018 20.96 42.3298 21.28 42.2658 21.536C41.8818 23.184 41.5458 24.424 41.2578 25.256C41.1618 25.496 40.9938 25.688 40.7538 25.832C40.5138 25.96 40.2578 26.024 39.9858 26.024C39.7138 26.024 39.4418 25.968 39.1698 25.856C38.9138 25.728 38.7298 25.584 38.6178 25.424C38.1218 24.448 37.5058 23.12 36.7698 21.44C36.0498 19.744 35.4898 18.264 35.0898 17C34.0978 19.512 33.2098 21.936 32.4258 24.272C32.3778 24.416 32.3218 24.576 32.2578 24.752C32.2098 24.912 32.1538 25.08 32.0898 25.256C31.9778 25.496 31.8178 25.688 31.6098 25.832C31.4018 25.96 31.1698 26.024 30.9138 26.024C30.6258 26.024 30.3458 25.968 30.0738 25.856C29.8018 25.728 29.6178 25.584 29.5218 25.424C29.3138 25.072 29.0898 24.528 28.8498 23.792C28.6258 23.056 28.3218 22.024 27.9378 20.696L27.3378 18.656C26.9218 17.328 26.5618 15.968 26.2578 14.576C25.9538 13.184 25.8018 12.352 25.8018 12.08C25.8018 11.744 25.9698 11.48 26.3058 11.288C26.6418 11.08 26.9778 10.976 27.3138 10.976C27.5058 10.976 27.7058 11.04 27.9138 11.168C28.1218 11.28 28.2578 11.48 28.3218 11.768C28.8818 14.76 29.7058 18.232 30.7938 22.184C31.2098 21.192 31.6658 19.984 32.1618 18.56C32.6738 17.136 33.1618 15.752 33.6258 14.408L33.8658 13.688C33.9298 13.448 34.0898 13.264 34.3458 13.136C34.6178 12.992 34.8898 12.92 35.1618 12.92C35.5138 12.92 35.8018 13.008 36.0258 13.184C36.2498 13.36 36.3938 13.552 36.4578 13.76C36.4738 13.824 36.7938 14.776 37.4178 16.616C38.0418 18.456 38.7858 20.312 39.6498 22.184C39.9698 21.24 40.3538 19.728 40.8018 17.648L41.1618 16.064C41.5938 14.368 41.9458 13.056 42.2178 12.128ZM56.6979 24.848C56.6979 25.2 56.5059 25.496 56.1219 25.736C55.7539 25.976 55.4099 26.096 55.0899 26.096C54.4819 26.096 53.9939 26.024 53.6259 25.88C53.2739 25.72 52.9459 25.432 52.6419 25.016C52.2259 25.384 51.6579 25.664 50.9379 25.856C50.2179 26.032 49.5539 26.12 48.9459 26.12C47.9539 26.12 47.1379 25.856 46.4979 25.328C45.8579 24.784 45.5379 23.992 45.5379 22.952C45.5379 22.504 45.6579 22.096 45.8979 21.728C46.1379 21.344 46.4659 21.008 46.8819 20.72C47.3459 20.416 47.8739 20.184 48.4659 20.024C49.0579 19.848 49.6739 19.76 50.3139 19.76C50.6499 19.76 51.0499 19.824 51.5139 19.952C51.9779 20.08 52.3379 20.216 52.5939 20.36V19.976C52.5939 19.112 52.3859 18.52 51.9699 18.2C51.5539 17.864 50.8819 17.696 49.9539 17.696C49.6819 17.696 49.4099 17.752 49.1379 17.864C48.8819 17.976 48.5859 18.128 48.2499 18.32C47.8019 18.56 47.3779 18.68 46.9779 18.68C46.8339 18.68 46.6979 18.584 46.5699 18.392C46.4419 18.184 46.3779 18 46.3779 17.84C46.3779 17.376 46.5939 16.976 47.0259 16.64C47.4739 16.304 48.0019 16.056 48.6099 15.896C49.2179 15.72 49.7619 15.632 50.2419 15.632C50.7219 15.632 51.2739 15.728 51.8979 15.92C52.5219 16.096 53.0339 16.344 53.4339 16.664C53.9139 17.08 54.2819 17.568 54.5379 18.128C54.8099 18.672 54.9459 19.272 54.9459 19.928C54.9459 20.136 54.9299 20.448 54.8979 20.864C54.8659 21.312 54.8499 21.696 54.8499 22.016C54.8499 22.16 54.8339 22.376 54.8019 22.664C54.7699 23.016 54.7539 23.296 54.7539 23.504C54.7539 23.696 54.8259 23.864 54.9699 24.008C55.1139 24.136 55.2819 24.2 55.4739 24.2L56.1459 24.176C56.3219 24.176 56.4579 24.24 56.5539 24.368C56.6499 24.496 56.6979 24.656 56.6979 24.848ZM48.9699 24.224C49.6579 24.224 50.2339 24.152 50.6979 24.008C51.1619 23.864 51.7219 23.6 52.3779 23.216C52.4419 22.944 52.4819 22.584 52.4979 22.136C51.6179 21.72 50.8899 21.512 50.3139 21.512C49.6579 21.512 49.0739 21.632 48.5619 21.872C48.0499 22.112 47.7939 22.536 47.7939 23.144C47.7939 23.448 47.9219 23.704 48.1779 23.912C48.4339 24.12 48.6979 24.224 48.9699 24.224ZM61.8455 25.04C61.8455 25.312 61.7415 25.552 61.5335 25.76C61.3255 25.968 61.0695 26.072 60.7655 26.072C60.2855 26.072 59.9335 25.984 59.7095 25.808C59.4855 25.616 59.3735 25.272 59.3735 24.776C59.3735 24.184 59.3575 23.408 59.3255 22.448C59.2935 21.648 59.2775 20.976 59.2775 20.432C59.2775 20.176 59.2935 19.84 59.3255 19.424C59.3575 19.04 59.3735 18.752 59.3735 18.56C59.3255 18.256 59.2055 18.008 59.0135 17.816C58.8215 17.608 58.5735 17.504 58.2695 17.504C58.1255 17.504 58.0055 17.44 57.9095 17.312C57.8135 17.168 57.7655 17.024 57.7655 16.88C57.7655 16.512 57.9095 16.232 58.1975 16.04C58.5015 15.848 58.8615 15.752 59.2775 15.752C60.1415 15.752 60.7415 16.264 61.0775 17.288C61.4935 16.808 61.9655 16.424 62.4935 16.136C63.0375 15.832 63.5575 15.68 64.0535 15.68C64.6455 15.68 65.1815 15.84 65.6615 16.16C66.1575 16.48 66.4055 16.912 66.4055 17.456C66.4055 17.76 66.2695 18.072 65.9975 18.392C65.7415 18.712 65.4775 18.872 65.2055 18.872C65.0615 18.872 64.9335 18.84 64.8215 18.776C64.7255 18.696 64.6055 18.584 64.4615 18.44C64.3015 18.28 64.1655 18.168 64.0535 18.104C63.9415 18.024 63.8135 17.984 63.6695 17.984C63.4135 17.984 63.1735 18.024 62.9495 18.104C62.7255 18.184 62.5735 18.28 62.4935 18.392C62.2375 18.792 62.0455 19.152 61.9175 19.472C61.8055 19.792 61.7495 20.136 61.7495 20.504C61.7495 20.776 61.7415 20.992 61.7255 21.152L61.7015 22.52C61.7015 22.728 61.7095 22.96 61.7255 23.216C61.7415 23.472 61.7575 23.664 61.7735 23.792C61.8215 24.224 61.8455 24.64 61.8455 25.04ZM67.8085 17.744C67.4085 17.408 67.2085 17.016 67.2085 16.568C67.2085 16.344 67.3205 16.144 67.5445 15.968C67.7685 15.776 68.0405 15.68 68.3605 15.68C68.9365 15.68 69.4085 15.832 69.7765 16.136C70.1445 16.44 70.4645 16.88 70.7365 17.456C71.0725 16.832 71.4965 16.376 72.0085 16.088C72.5365 15.784 73.2005 15.632 74.0005 15.632C74.4805 15.632 74.8645 15.696 75.1525 15.824C75.4565 15.936 75.7045 16.104 75.8965 16.328C76.0885 16.536 76.3285 16.856 76.6165 17.288C77.0325 16.776 77.5525 16.376 78.1765 16.088C78.8165 15.8 79.4725 15.656 80.1445 15.656C80.9285 15.656 81.6405 15.984 82.2805 16.64C82.9365 17.296 83.3765 18.04 83.6005 18.872C83.6805 19.224 83.7365 20.056 83.7685 21.368L83.8645 22.76C83.9445 23.608 84.2165 24.112 84.6805 24.272C84.9045 24.336 85.0885 24.416 85.2325 24.512C85.3925 24.592 85.4725 24.68 85.4725 24.776C85.5045 25.16 85.4165 25.44 85.2085 25.616C85.0645 25.712 84.8645 25.816 84.6085 25.928C84.3525 26.04 84.1525 26.096 84.0085 26.096C83.1445 26.096 82.5285 25.784 82.1605 25.16C81.9205 24.744 81.7685 24.272 81.7045 23.744C81.6405 23.2 81.6085 22.464 81.6085 21.536C81.6085 20.544 81.4885 19.696 81.2485 18.992C81.0085 18.272 80.4645 17.912 79.6165 17.912C79.3125 17.912 79.0085 18.008 78.7045 18.2C78.4165 18.376 78.2085 18.6 78.0805 18.872C77.8565 19.304 77.7045 19.776 77.6245 20.288C77.5445 20.784 77.5045 21.36 77.5045 22.016C77.5045 22.432 77.5285 22.856 77.5765 23.288C77.5765 23.416 77.5845 23.624 77.6005 23.912C77.6325 24.184 77.6485 24.432 77.6485 24.656C77.6485 25.056 77.5685 25.4 77.4085 25.688C77.2645 25.96 77.0085 26.096 76.6405 26.096C75.7605 26.096 75.2965 25.632 75.2485 24.704C75.2485 24.048 75.2565 23.696 75.2725 23.648V22.616C75.2725 22.04 75.2485 21.48 75.2005 20.936C75.1525 20.392 75.0965 19.984 75.0325 19.712C74.8885 19.184 74.6965 18.776 74.4565 18.488C74.2165 18.2 73.8485 18.056 73.3525 18.056C73.0165 18.056 72.7045 18.136 72.4165 18.296C72.1285 18.456 71.8805 18.68 71.6725 18.968C71.3685 19.448 71.1685 20.032 71.0725 20.72C70.9765 21.6 70.9045 22.296 70.8565 22.808C70.8245 23.304 70.8085 23.88 70.8085 24.536C70.8085 25 70.7285 25.376 70.5685 25.664C70.4245 25.952 70.1445 26.096 69.7285 26.096C69.4245 26.096 69.1045 26.016 68.7685 25.856C68.4485 25.68 68.2885 25.448 68.2885 25.16C68.2885 24.856 68.3205 24.552 68.3845 24.248C68.5285 23.336 68.6005 21.784 68.6005 19.592C68.6005 19.24 68.5205 18.896 68.3605 18.56C68.2165 18.208 68.0325 17.936 67.8085 17.744ZM86.137 12.008C86.137 11.32 86.641 10.976 87.649 10.976C88.081 10.976 88.905 10.992 90.121 11.024C91.465 11.088 92.481 11.12 93.169 11.12C93.729 11.12 94.409 11.088 95.209 11.024C95.753 10.992 96.097 10.976 96.241 10.976C97.121 11.008 97.865 11.168 98.473 11.456C98.649 11.536 98.793 11.632 98.905 11.744C99.017 11.856 99.073 12.04 99.073 12.296C99.073 12.648 98.961 12.952 98.737 13.208C98.513 13.448 98.241 13.568 97.921 13.568C97.569 13.568 97.057 13.52 96.385 13.424C95.793 13.312 95.273 13.256 94.825 13.256C94.393 13.256 94.065 13.264 93.841 13.28C93.793 13.808 93.769 15.072 93.769 17.072C93.769 19.456 93.841 21.872 93.985 24.32L94.033 25.016C94.033 25.672 93.657 26 92.905 26C92.313 26 91.913 25.864 91.705 25.592C91.497 25.304 91.393 24.872 91.393 24.296C91.393 23.16 91.361 21.744 91.297 20.048C91.233 18.64 91.201 17.64 91.201 17.048C91.201 16.648 91.249 15.424 91.345 13.376L88.537 13.4C87.641 13.4 87.017 13.32 86.665 13.16C86.313 12.984 86.137 12.6 86.137 12.008ZM103.502 10.784C103.502 11.2 103.494 11.688 103.478 12.248C103.462 12.792 103.446 13.208 103.43 13.496C103.382 14.312 103.358 15.128 103.358 15.944C103.358 17.016 103.382 17.88 103.43 18.536C103.798 17.624 104.318 16.936 104.99 16.472C105.662 15.992 106.43 15.752 107.294 15.752C107.886 15.752 108.438 16.016 108.95 16.544C109.462 17.072 109.79 17.688 109.934 18.392C109.95 18.472 109.958 18.592 109.958 18.752C109.958 18.944 109.942 19.248 109.91 19.664C109.862 20 109.838 20.336 109.838 20.672C109.838 21.536 109.87 22.208 109.934 22.688C109.998 23.152 110.134 23.536 110.342 23.84C110.55 24.128 110.878 24.36 111.326 24.536C111.502 24.6 111.622 24.688 111.686 24.8C111.766 24.896 111.806 25.048 111.806 25.256C111.806 25.544 111.654 25.76 111.35 25.904C111.062 26.048 110.782 26.12 110.51 26.12C109.95 26.12 109.446 25.968 108.998 25.664C108.55 25.36 108.214 24.96 107.99 24.464C107.83 24.128 107.726 23.728 107.678 23.264C107.63 22.8 107.606 22.256 107.606 21.632L107.63 19.544C107.63 18.408 107.262 17.84 106.526 17.84C105.998 17.84 105.486 18.272 104.99 19.136C104.494 20 104.094 21.016 103.79 22.184C103.486 23.352 103.334 24.312 103.334 25.064C103.334 25.416 103.222 25.68 102.998 25.856C102.79 26.016 102.574 26.096 102.35 26.096C101.998 26.096 101.678 25.992 101.39 25.784C101.102 25.56 100.958 25.312 100.958 25.04C101.07 23.84 101.126 21.832 101.126 19.016C101.126 18.504 101.086 16.608 101.006 13.328L100.934 11.12C100.934 10.768 101.094 10.464 101.414 10.208C101.734 9.936 102.094 9.8 102.494 9.8C102.846 9.8 103.102 9.88 103.262 10.04C103.422 10.2 103.502 10.448 103.502 10.784ZM116.924 25.04C116.924 25.312 116.82 25.552 116.612 25.76C116.404 25.968 116.148 26.072 115.844 26.072C115.364 26.072 115.012 25.984 114.788 25.808C114.564 25.616 114.452 25.272 114.452 24.776C114.452 24.184 114.436 23.408 114.404 22.448C114.372 21.648 114.356 20.976 114.356 20.432C114.356 20.176 114.372 19.84 114.404 19.424C114.436 19.04 114.452 18.752 114.452 18.56C114.404 18.256 114.284 18.008 114.092 17.816C113.9 17.608 113.652 17.504 113.348 17.504C113.204 17.504 113.084 17.44 112.988 17.312C112.892 17.168 112.844 17.024 112.844 16.88C112.844 16.512 112.988 16.232 113.276 16.04C113.58 15.848 113.94 15.752 114.356 15.752C115.22 15.752 115.82 16.264 116.156 17.288C116.572 16.808 117.044 16.424 117.572 16.136C118.116 15.832 118.636 15.68 119.132 15.68C119.724 15.68 120.26 15.84 120.74 16.16C121.236 16.48 121.484 16.912 121.484 17.456C121.484 17.76 121.348 18.072 121.076 18.392C120.82 18.712 120.556 18.872 120.284 18.872C120.14 18.872 120.012 18.84 119.9 18.776C119.804 18.696 119.684 18.584 119.54 18.44C119.38 18.28 119.244 18.168 119.132 18.104C119.02 18.024 118.892 17.984 118.748 17.984C118.492 17.984 118.252 18.024 118.028 18.104C117.804 18.184 117.652 18.28 117.572 18.392C117.316 18.792 117.124 19.152 116.996 19.472C116.884 19.792 116.828 20.136 116.828 20.504C116.828 20.776 116.82 20.992 116.804 21.152L116.78 22.52C116.78 22.728 116.788 22.96 116.804 23.216C116.82 23.472 116.836 23.664 116.852 23.792C116.9 24.224 116.924 24.64 116.924 25.04ZM122.671 20.504C122.671 19.528 122.887 18.72 123.319 18.08C123.751 17.424 124.351 16.808 125.119 16.232C125.343 16.072 125.719 15.936 126.247 15.824C126.775 15.696 127.239 15.632 127.639 15.632C128.119 15.632 128.623 15.736 129.151 15.944C129.695 16.136 130.135 16.36 130.471 16.616C131.063 17.048 131.471 17.552 131.695 18.128C131.919 18.688 132.031 19.36 132.031 20.144C132.031 20.48 131.839 20.808 131.455 21.128C131.087 21.432 130.687 21.584 130.255 21.584L129.343 21.56C128.879 21.56 128.215 21.576 127.351 21.608L126.847 21.632C126.495 21.664 126.231 21.68 126.055 21.68C125.799 21.68 125.447 21.648 124.999 21.584C125.063 22.336 125.343 22.928 125.839 23.36C126.335 23.776 126.871 23.984 127.447 23.984C128.455 23.984 129.159 23.784 129.559 23.384C129.895 23.144 130.119 22.992 130.231 22.928C130.343 22.864 130.519 22.832 130.759 22.832C131.015 22.832 131.239 22.952 131.431 23.192C131.623 23.432 131.719 23.672 131.719 23.912C131.719 24.184 131.551 24.464 131.215 24.752C130.895 25.024 130.455 25.312 129.895 25.616C129.591 25.744 129.175 25.856 128.647 25.952C128.119 26.048 127.679 26.096 127.327 26.096C126.767 26.096 126.143 25.936 125.455 25.616C124.767 25.28 124.255 24.912 123.919 24.512C123.583 24.112 123.287 23.544 123.031 22.808C122.791 22.072 122.671 21.304 122.671 20.504ZM127.447 19.856C128.583 19.856 129.415 19.816 129.943 19.736C129.911 19.272 129.767 18.896 129.511 18.608C129.255 18.304 128.903 18.048 128.455 17.84C128.311 17.776 128.183 17.728 128.071 17.696C127.959 17.664 127.831 17.648 127.687 17.648C126.951 17.648 126.327 17.848 125.815 18.248C125.319 18.648 125.023 19.16 124.927 19.784C125.727 19.832 126.567 19.856 127.447 19.856ZM145.197 24.848C145.197 25.2 145.005 25.496 144.621 25.736C144.237 25.976 143.885 26.096 143.565 26.096C142.973 26.096 142.493 26.024 142.125 25.88C141.773 25.72 141.437 25.432 141.117 25.016C140.717 25.384 140.157 25.664 139.437 25.856C138.717 26.032 138.053 26.12 137.445 26.12C136.453 26.12 135.629 25.856 134.973 25.328C134.333 24.784 134.013 23.992 134.013 22.952C134.013 22.504 134.149 22.056 134.421 21.608C134.693 21.144 135.029 20.776 135.429 20.504C135.861 20.216 136.349 20.024 136.893 19.928C137.437 19.816 138.069 19.76 138.789 19.76C139.125 19.76 139.525 19.824 139.989 19.952C140.453 20.08 140.821 20.216 141.093 20.36V19.976C141.093 19.112 140.877 18.52 140.445 18.2C140.029 17.864 139.357 17.696 138.429 17.696C138.141 17.696 137.877 17.744 137.637 17.84C137.413 17.92 137.149 18.04 136.845 18.2C136.557 18.36 136.285 18.44 136.029 18.44C135.805 18.44 135.589 18.352 135.381 18.176C135.173 17.984 135.069 17.784 135.069 17.576C135.069 16.904 135.485 16.416 136.317 16.112C137.165 15.792 138.029 15.632 138.909 15.632C139.357 15.632 139.869 15.728 140.445 15.92C141.021 16.096 141.509 16.344 141.909 16.664C142.389 17.064 142.757 17.544 143.013 18.104C143.285 18.664 143.421 19.272 143.421 19.928C143.421 20.136 143.405 20.448 143.373 20.864C143.341 21.312 143.325 21.696 143.325 22.016L143.301 22.664C143.269 23.016 143.253 23.296 143.253 23.504C143.253 23.696 143.317 23.864 143.445 24.008C143.589 24.136 143.757 24.2 143.949 24.2L144.621 24.176C144.797 24.176 144.933 24.248 145.029 24.392C145.141 24.52 145.197 24.672 145.197 24.848ZM137.445 24.224C138.133 24.224 138.709 24.152 139.173 24.008C139.637 23.864 140.197 23.6 140.853 23.216C140.917 22.944 140.957 22.584 140.973 22.136C140.093 21.72 139.365 21.512 138.789 21.512C138.245 21.512 137.805 21.536 137.469 21.584C137.133 21.616 136.829 21.752 136.557 21.992C136.285 22.232 136.149 22.616 136.149 23.144C136.149 23.448 136.293 23.704 136.581 23.912C136.885 24.12 137.173 24.224 137.445 24.224ZM156.683 25.88C156.347 25.88 156.027 25.784 155.723 25.592C155.435 25.384 155.179 25.168 154.955 24.944C154.731 24.704 154.579 24.544 154.499 24.464C154.163 24.944 153.675 25.336 153.035 25.64C152.395 25.944 151.779 26.096 151.187 26.096C150.275 26.096 149.467 25.904 148.763 25.52C148.059 25.136 147.515 24.616 147.131 23.96C146.747 23.288 146.555 22.544 146.555 21.728C146.555 20.96 146.643 20.224 146.819 19.52C147.011 18.8 147.267 18.2 147.587 17.72C148.019 17.112 148.595 16.632 149.315 16.28C150.051 15.928 150.779 15.752 151.499 15.752C151.931 15.752 152.339 15.832 152.723 15.992C153.107 16.152 153.443 16.352 153.731 16.592C153.731 15.536 153.723 14.872 153.707 14.6V14.072C153.707 12.568 153.803 11.472 153.995 10.784C154.171 10.112 154.603 9.776 155.291 9.776C155.659 9.776 155.931 9.856 156.107 10.016C156.283 10.176 156.371 10.48 156.371 10.928C156.371 11.088 156.331 11.528 156.251 12.248C156.075 14.04 155.987 15.832 155.987 17.624C155.987 19.128 156.011 20.248 156.059 20.984C156.123 21.704 156.243 22.28 156.419 22.712C156.611 23.144 156.907 23.528 157.307 23.864C157.547 24.056 157.715 24.216 157.811 24.344C157.923 24.472 157.979 24.64 157.979 24.848C157.979 25.104 157.851 25.344 157.595 25.568C157.339 25.776 157.035 25.88 156.683 25.88ZM151.115 24.152C151.963 24.152 152.587 23.888 152.987 23.36C153.403 22.816 153.611 22.128 153.611 21.296L153.587 19.952C153.571 19.696 153.563 19.352 153.563 18.92C152.971 18.216 152.331 17.864 151.643 17.864C151.179 17.864 150.739 17.984 150.323 18.224C149.923 18.464 149.595 18.816 149.339 19.28C149.067 19.808 148.931 20.608 148.931 21.68C148.931 22.416 149.147 23.016 149.579 23.48C150.011 23.928 150.523 24.152 151.115 24.152ZM166.406 20.504C167.046 20.872 167.494 21.24 167.75 21.608C168.006 21.96 168.134 22.424 168.134 23C168.134 23.576 167.966 24.088 167.63 24.536C167.294 24.968 166.862 25.304 166.334 25.544C165.95 25.72 165.47 25.856 164.894 25.952C164.334 26.048 163.894 26.096 163.574 26.096C163.014 26.096 162.406 25.992 161.75 25.784C161.094 25.576 160.534 25.28 160.07 24.896C159.622 24.512 159.398 24.064 159.398 23.552C159.398 23.232 159.502 22.984 159.71 22.808C159.918 22.616 160.19 22.52 160.526 22.52C160.798 22.52 161.086 22.712 161.39 23.096C161.694 23.432 162.046 23.688 162.446 23.864C162.862 24.04 163.27 24.128 163.67 24.128C165.19 24.128 165.95 23.784 165.95 23.096C165.95 22.952 165.902 22.816 165.806 22.688C165.71 22.544 165.622 22.448 165.542 22.4C165.398 22.288 165.198 22.192 164.942 22.112C164.686 22.032 164.43 21.968 164.174 21.92C163.918 21.856 163.726 21.808 163.598 21.776C163.47 21.744 163.198 21.688 162.782 21.608C162.382 21.528 161.998 21.392 161.63 21.2C161.022 20.912 160.526 20.56 160.142 20.144C159.774 19.728 159.59 19.192 159.59 18.536C159.59 18.168 159.678 17.8 159.854 17.432C160.046 17.048 160.302 16.76 160.622 16.568C161.102 16.264 161.63 16.032 162.206 15.872C162.782 15.712 163.318 15.632 163.814 15.632C164.214 15.632 164.662 15.672 165.158 15.752C165.67 15.832 166.038 15.944 166.262 16.088C166.678 16.312 166.982 16.544 167.174 16.784C167.366 17.024 167.462 17.328 167.462 17.696C167.462 17.872 167.422 18.048 167.342 18.224C167.262 18.384 167.166 18.496 167.054 18.56C166.798 18.656 166.574 18.704 166.382 18.704C166.238 18.704 166.118 18.68 166.022 18.632C165.926 18.568 165.838 18.504 165.758 18.44C165.694 18.376 165.654 18.336 165.638 18.32C165.43 18.096 165.198 17.92 164.942 17.792C164.686 17.664 164.31 17.6 163.814 17.6C163.494 17.6 163.182 17.648 162.878 17.744C162.59 17.824 162.366 17.928 162.206 18.056C162.078 18.152 161.99 18.24 161.942 18.32C161.894 18.384 161.87 18.472 161.87 18.584C161.87 19.032 162.318 19.36 163.214 19.568C164.126 19.776 164.606 19.888 164.654 19.904C164.75 19.936 165.014 20.016 165.446 20.144C165.894 20.272 166.214 20.392 166.406 20.504Z" fill="white"/>
<defs>
<clipPath id="clip0_1058_112">
<rect width="86.2925" height="21.0595" fill="white" transform="translate(0 8)"/>
</clipPath>
</defs>
</svg>
